<?xml version="1.0" encoding="UTF-8"?>
<!DOCTYPE svg PUBLIC "-//W3C//DTD SVG 1.1//EN" "http://www.w3.org/Graphics/SVG/1.1/DTD/svg11.dtd">
<!-- Creator: CorelDRAW X7 -->
<svg xmlns="http://www.w3.org/2000/svg" xml:space="preserve" width="180px" height="180px" version="1.1" style="shape-rendering:geometricPrecision; text-rendering:geometricPrecision; image-rendering:optimizeQuality; fill-rule:evenodd; clip-rule:evenodd"
viewBox="0 0 180 180"
 xmlns:xlink="http://www.w3.org/1999/xlink">
 <defs>
  <style type="text/css">
   <![CDATA[
    .fil0 {fill:#FEFEFE}
    .fil1 {fill:#1B4774}
    .fil3 {fill:#1B4774;fill-rule:nonzero}
    .fil2 {fill:#F1A501;fill-rule:nonzero}
   ]]>
  </style>
 </defs>
 <g id="Layer_x0020_1">
  <metadata id="CorelCorpID_0Corel-Layer"/>
  <rect class="fil0" x="-360" y="-360" width="900" height="900"/>
  <g id="_3033061001248">
   <path class="fil1" d="M214 45c3,-3 7,-5 9,-6l0 252 -99 0c-2,-3 -4,-3 -7,-5 -9,-6 -15,-15 -10,-28 9,-21 21,-4 38,-12l-9 -8c-3,2 -2,4 -4,8 -10,2 -19,-11 -29,-20 -9,-9 -33,-36 -39,-46 3,2 7,5 8,7 2,2 2,3 4,4 6,6 13,15 19,20 3,-3 13,-22 36,-26 -5,7 -14,11 -20,17 11,-6 21,-17 32,-23 5,3 9,7 14,11 4,3 9,9 13,11 5,-12 13,-24 19,-35 2,-5 1,-4 1,-9l0 -5c-8,-5 -23,20 -35,-10 -4,2 -4,3 -10,3 1,-12 5,-13 -2,-22 -4,-5 -7,-10 -8,-20l-2 6c-3,-5 -2,-12 -2,-18 -3,4 -2,7 -4,10 -2,-6 0,-14 0,-20 -1,4 -4,12 -7,14 -1,-18 4,-29 16,-36 10,-5 11,-26 47,-24 6,1 12,2 18,3 6,2 10,6 13,7z"/>
   <path class="fil1" d="M241 162c0,-6 -2,-9 -4,-11 8,3 8,9 4,18 -4,-2 -5,-8 -12,10 -2,5 -5,19 -6,23 -4,-13 -4,-28 -14,-40 -4,-5 -4,-3 -5,-13 -4,2 -6,-1 -5,-5 0,-4 26,-35 17,-68 -2,-7 -4,-6 2,-9 2,2 4,7 6,10 3,9 -8,15 -5,43 2,16 13,38 22,42z"/>
   <path class="fil1" d="M252 261c-11,1 -18,-3 -27,-4 -1,16 5,24 10,34l-23 0c5,-7 6,-20 7,-32l-18 1c4,-1 8,-1 12,-3 6,-1 6,-3 9,-5 4,6 23,8 30,9z"/>
   <path class="fil2" d="M141 294l234 0 0 -4 -96 0 0 -383 96 0 0 -1 -234 0c-46,0 -87,17 -123,50 -15,14 -28,29 -37,46l0 25 -8 -2c0,-2 -1,-4 -1,-6 -8,16 -13,34 -15,53 8,4 15,9 20,13 25,20 38,51 38,94 0,22 -4,40 -13,56 3,3 6,6 9,8 35,34 78,51 130,51zm0 -6c-38,0 -66,-16 -84,-47 -17,-31 -26,-77 -26,-139 0,-58 9,-104 27,-137 19,-35 46,-53 83,-53 19,0 34,0 44,1 10,0 18,1 22,3 4,2 7,4 8,7 2,3 2,11 2,23l0 308c0,12 0,19 -2,23 -1,4 -4,6 -8,8 -4,1 -13,2 -26,2 -13,1 -26,1 -40,1z"/>
   <path class="fil3" d="M-64 -82c24,-18 36,-28 37,-29l0 138 -7 -2c-8,-37 -24,-67 -46,-90 -24,-25 -50,-38 -79,-38 -22,0 -40,5 -54,13 -19,12 -29,31 -29,58 0,22 11,39 31,52 15,8 44,18 88,28 44,11 75,23 93,37 25,20 37,51 37,94 0,40 -13,69 -40,88 -21,15 -48,23 -81,23 -27,0 -46,-2 -58,-6 -17,-5 -36,-18 -56,-39 -24,29 -37,44 -39,45l0 -163 7 0c10,38 19,65 26,79 9,21 19,36 29,45 14,14 28,22 41,26 12,3 31,5 56,5 19,0 35,-5 47,-15 15,-12 23,-28 23,-50 0,-27 -10,-48 -30,-61 -15,-11 -43,-20 -82,-28 -39,-8 -69,-21 -91,-38 -26,-22 -38,-50 -38,-86 0,-32 10,-59 32,-81 22,-23 49,-34 80,-34 24,0 45,4 62,12 24,10 37,16 41,17z"/>
   <path class="fil3" d="M286 294l127 0 0 -6c-23,0 -41,-1 -54,-2 -13,-1 -23,-3 -27,-5 -5,-1 -8,-4 -9,-6 -2,-3 -3,-10 -3,-21l0 -324c0,-11 2,-16 4,-17 1,-1 5,-1 12,-1 31,0 55,10 71,30 20,25 35,70 45,135l7 0 0 -170 -173 0 0 387z"/>
  </g>
 </g>
</svg>
