<?xml version="1.0" encoding="UTF-8"?>
<!DOCTYPE svg PUBLIC "-//W3C//DTD SVG 1.1//EN" "http://www.w3.org/Graphics/SVG/1.1/DTD/svg11.dtd">
<!-- Creator: CorelDRAW X7 -->
<svg xmlns="http://www.w3.org/2000/svg" xml:space="preserve" width="180px" height="180px" version="1.1" style="shape-rendering:geometricPrecision; text-rendering:geometricPrecision; image-rendering:optimizeQuality; fill-rule:evenodd; clip-rule:evenodd"
viewBox="0 0 180 180"
 xmlns:xlink="http://www.w3.org/1999/xlink">
 <defs>
  <style type="text/css">
   <![CDATA[
    .fil0 {fill:#FEFEFE}
    .fil1 {fill:#1B4774}
    .fil3 {fill:#1B4774;fill-rule:nonzero}
    .fil2 {fill:#F1A501;fill-rule:nonzero}
   ]]>
  </style>
 </defs>
 <g id="Layer_x0020_1">
  <metadata id="CorelCorpID_0Corel-Layer"/>
  <rect class="fil0" width="180" height="180"/>
  <g id="_3032766673568">
   <path class="fil1" d="M115 81c0,-1 1,-1 2,-1l0 50 -20 0c-1,0 -1,0 -2,-1 -1,-1 -3,-3 -2,-5 2,-5 5,-1 8,-3l-2 -1c0,0 0,0 -1,1 -2,1 -3,-2 -5,-4 -2,-2 -7,-7 -8,-9 0,0 1,1 1,1 1,1 1,1 1,1 1,1 3,3 4,4 1,0 3,-4 7,-5 -1,1 -3,2 -4,3 2,-1 4,-3 7,-4 1,0 1,1 2,2 1,1 2,2 3,2 1,-2 3,-5 4,-7 0,-1 0,-1 0,-2l0 -1c-2,-1 -5,4 -7,-2 -1,1 -1,1 -2,1 0,-2 1,-3 0,-4 -1,-1 -2,-2 -2,-4l0 1c-1,-1 -1,-3 -1,-4 0,1 0,2 -1,2 0,-1 0,-3 0,-4 0,1 0,3 -1,3 0,-4 1,-6 3,-7 2,-1 2,-5 10,-5 1,0 2,0 3,1 1,0 2,1 3,1z"/>
   <path class="fil1" d="M120 104c0,-1 0,-1 -1,-2 2,1 2,2 1,4 -1,-1 -1,-2 -2,2 -1,1 -1,4 -1,4 -1,-2 -1,-5 -3,-8 -1,-1 -1,0 -1,-2 -1,0 -1,0 -1,-1 0,-1 5,-7 3,-14 0,-1 -1,-1 1,-2 0,1 0,2 1,2 0,2 -2,3 -1,9 0,3 2,8 4,8z"/>
   <path class="fil1" d="M122 124c-2,0 -3,0 -5,-1 0,4 1,5 2,7l-5 0c1,-1 2,-4 2,-6l-4 0c1,0 2,0 3,-1 1,0 1,0 1,-1 1,2 5,2 6,2z"/>
   <path class="fil2" d="M100 131l47 0 0 -1 -19 0 0 -77 19 0 0 0 -47 0c-9,0 -17,4 -24,10 -3,3 -6,6 -8,9l0 5 -1 0c0,0 -1,-1 -1,-1 -1,3 -2,7 -3,10 2,1 3,2 4,3 5,4 8,10 8,19 0,4 -1,8 -3,11 1,1 2,1 2,2 7,6 16,10 26,10zm0 -1c-7,0 -13,-4 -17,-10 -3,-6 -5,-15 -5,-28 0,-11 2,-20 6,-27 3,-7 9,-11 16,-11 4,0 7,0 9,1 2,0 4,0 4,0 1,1 2,1 2,2 0,0 0,2 0,4l0 62c0,2 0,4 0,4 0,1 -1,2 -2,2 0,0 -2,0 -5,0 -2,1 -5,1 -8,1z"/>
   <path class="fil3" d="M59 56c5,-4 7,-6 8,-6l0 27 -2 0c-1,-7 -5,-13 -9,-18 -5,-5 -10,-8 -16,-8 -4,0 -8,1 -11,3 -3,2 -5,6 -5,12 0,4 2,7 6,10 3,2 9,4 17,6 9,2 15,4 19,7 5,4 7,10 7,19 0,8 -2,14 -8,17 -4,3 -9,5 -16,5 -5,0 -9,0 -11,-1 -4,-1 -8,-4 -12,-8 -4,6 -7,9 -7,9l0 -33 1 0c2,8 4,13 5,16 2,4 4,7 6,9 3,3 6,5 8,5 3,1 6,1 11,1 4,0 7,-1 10,-3 3,-2 4,-5 4,-10 0,-5 -2,-9 -6,-12 -3,-2 -8,-4 -16,-5 -8,-2 -14,-5 -18,-8 -5,-4 -8,-10 -8,-17 0,-7 2,-12 7,-16 4,-5 9,-7 16,-7 4,0 9,1 12,2 5,2 7,3 8,4z"/>
   <path class="fil3" d="M129 131l26 0 0 -1c-5,0 -9,-1 -11,-1 -3,0 -5,0 -6,-1 -1,0 -1,-1 -1,-1 -1,-1 -1,-2 -1,-4l0 -65c0,-2 0,-3 1,-3 0,-1 1,-1 2,-1 6,0 11,2 14,6 4,5 7,14 9,27l2 0 0 -34 -35 0 0 78z"/>
  </g>
 </g>
</svg>
