<?xml version="1.0" encoding="UTF-8"?>
<!DOCTYPE svg PUBLIC "-//W3C//DTD SVG 1.1//EN" "http://www.w3.org/Graphics/SVG/1.1/DTD/svg11.dtd">
<!-- Creator: CorelDRAW X7 -->
<svg xmlns="http://www.w3.org/2000/svg" xml:space="preserve" width="180px" height="180px" version="1.1" style="shape-rendering:geometricPrecision; text-rendering:geometricPrecision; image-rendering:optimizeQuality; fill-rule:evenodd; clip-rule:evenodd"
viewBox="0 0 180 180"
 xmlns:xlink="http://www.w3.org/1999/xlink">
 <defs>
  <style type="text/css">
   <![CDATA[
    .fil0 {fill:#FEFEFE}
    .fil1 {fill:#1B4774}
    .fil3 {fill:#1B4774;fill-rule:nonzero}
    .fil2 {fill:#F1A501;fill-rule:nonzero}
   ]]>
  </style>
 </defs>
 <g id="Layer_x0020_1">
  <metadata id="CorelCorpID_0Corel-Layer"/>
  <g id="_3032766629824">
   <rect class="fil0" width="180" height="180"/>
   <g>
    <path class="fil1" d="M111 82c1,-1 2,-1 2,-1l0 43 -17 0c0,0 -1,0 -1,0 -2,-1 -3,-3 -2,-5 2,-4 4,-1 6,-2l-1 -2c0,1 0,1 -1,2 -1,0 -3,-2 -5,-4 -1,-1 -6,-6 -6,-8 0,1 1,1 1,2 0,0 0,0 1,0 1,1 2,3 3,4 0,-1 2,-4 6,-5 -1,1 -2,2 -3,3 1,-1 3,-3 5,-4 1,1 2,1 3,2 0,1 1,2 2,2 1,-2 2,-4 3,-6 0,-1 0,-1 0,-2l0 0c-1,-1 -4,3 -6,-2 0,0 0,0 -1,0 0,-2 0,-2 -1,-3 -1,-1 -1,-2 -1,-4l-1 1c0,-1 0,-2 0,-3 0,1 0,1 -1,2 0,-1 0,-3 0,-4 0,1 0,2 -1,3 0,-3 1,-5 3,-7 2,0 2,-4 8,-4 1,0 2,1 3,1 1,0 2,1 2,1z"/>
    <path class="fil1" d="M116 102c0,-1 0,-1 -1,-2 2,1 2,2 1,3 -1,0 -1,-1 -2,2 0,1 -1,3 -1,4 -1,-2 -1,-5 -2,-7 -1,-1 -1,0 -1,-2 -1,0 -1,0 -1,-1 0,-1 4,-6 3,-12 -1,-1 -1,-1 0,-1 0,0 1,1 1,1 1,2 -1,3 -1,8 1,3 3,6 4,7z"/>
    <path class="fil1" d="M118 119c-2,0 -3,0 -5,0 0,2 1,4 2,5l-4 0c1,-1 1,-3 1,-5l-3 0c1,0 2,0 2,0 1,-1 1,-1 2,-1 0,1 4,1 5,1z"/>
    <path class="fil2" d="M99 125l40 0 0 -1 -16 0 0 -66 16 0 0 0 -40 0c-8,0 -15,3 -21,9 -3,2 -5,5 -7,8l0 4 -1 0c0,-1 0,-1 0,-2 -2,3 -3,6 -3,10 1,0 3,1 4,2 4,3 6,9 6,16 0,4 -1,7 -2,10 0,0 1,1 1,1 6,6 14,9 23,9zm0 -1c-7,0 -12,-3 -15,-8 -3,-5 -4,-13 -4,-24 0,-10 1,-18 4,-24 4,-6 8,-9 15,-9 3,0 6,0 7,0 2,0 3,0 4,1 1,0 1,0 2,1 0,0 0,2 0,4l0 53c0,2 0,3 0,4 -1,1 -1,1 -2,1 0,1 -2,1 -4,1 -3,0 -5,0 -7,0z"/>
    <path class="fil3" d="M63 60c4,-3 7,-5 7,-5l0 24 -1 0c-2,-7 -5,-12 -8,-16 -4,-4 -9,-7 -14,-7 -4,0 -7,1 -9,3 -4,2 -5,5 -5,10 0,4 2,6 5,9 3,1 8,3 15,5 8,1 13,3 16,6 5,3 7,9 7,16 0,7 -3,12 -7,15 -4,3 -9,4 -14,4 -5,0 -8,0 -10,-1 -3,-1 -6,-3 -10,-6 -4,4 -6,7 -7,7l0 -28 2 0c1,7 3,11 4,14 2,3 3,6 5,8 3,2 5,3 7,4 2,1 5,1 10,1 3,0 6,-1 8,-3 3,-2 4,-5 4,-8 0,-5 -2,-9 -5,-11 -3,-2 -8,-3 -14,-5 -7,-1 -12,-3 -16,-6 -5,-4 -7,-9 -7,-15 0,-6 2,-10 6,-14 4,-4 8,-6 14,-6 4,0 7,1 10,2 4,2 7,3 7,3z"/>
    <path class="fil3" d="M124 125l22 0 0 -1c-4,0 -7,0 -10,0 -2,-1 -3,-1 -4,-1 -1,0 -2,-1 -2,-1 0,-1 0,-2 0,-4l0 -56c0,-2 0,-3 0,-3 1,0 1,0 3,0 5,0 9,2 12,5 3,5 6,12 7,23l2 0 0 -29 -30 0 0 67z"/>
   </g>
  </g>
 </g>
</svg>
